<?xml version="1.0" encoding="UTF-8"?>
<svg xmlns="http://www.w3.org/2000/svg" xmlns:xlink="http://www.w3.org/1999/xlink" width="64pt" height="64pt" viewBox="0 0 64 64" version="1.1">
<g id="surface1">
<path style=" stroke:none;fill-rule:nonzero;fill:#ff6363;fill-opacity:1;" d="M 32 5.34375 C 17.277344 5.34375 5.34375 17.277344 5.34375 32 C 5.34375 46.722656 17.28125 58.65625 32 58.65625 C 46.722656 58.65625 58.65625 46.722656 58.65625 32 C 58.65625 17.277344 46.722656 5.34375 32 5.34375 Z M 32 56.523438 C 18.476562 56.523438 7.476562 45.523438 7.476562 32 C 7.476562 18.476562 18.476562 7.476562 32 7.476562 C 45.523438 7.476562 56.523438 18.476562 56.523438 32 C 56.523438 45.523438 45.523438 56.523438 32 56.523438 Z M 32 56.523438 "/>
<path style=" stroke:none;fill-rule:nonzero;fill:#ff6363;fill-opacity:1;" d="M 45.335938 22.480469 L 28.214844 39.078125 L 22.21875 33.085938 C 21.597656 32.460938 20.585938 32.460938 19.957031 33.085938 C 19.332031 33.707031 19.335938 34.71875 19.957031 35.347656 L 27.066406 42.457031 C 27.378906 42.769531 27.789062 42.925781 28.199219 42.925781 C 28.597656 42.925781 29 42.773438 29.308594 42.472656 L 47.558594 24.777344 C 48.191406 24.160156 48.207031 23.148438 47.59375 22.515625 C 46.976562 21.878906 45.964844 21.867188 45.332031 22.480469 Z M 45.335938 22.480469 "/>
</g>
</svg>
