<?xml version="1.0" encoding="UTF-8"?>
<svg xmlns="http://www.w3.org/2000/svg" xmlns:xlink="http://www.w3.org/1999/xlink" width="54pt" height="64pt" viewBox="0 0 54 64" version="1.1">
<g id="surface1">
<path style=" stroke:none;fill-rule:nonzero;fill:#5474fd;fill-opacity:1;" d="M 54.550781 31.277344 C 54.550781 28.699219 52.511719 26.710938 49.800781 26.710938 L 32.730469 26.710938 C 33.820312 24.183594 35.777344 18.875 35.777344 13.394531 C 35.777344 7.136719 32.640625 5.824219 30.007812 5.824219 C 28.375 5.824219 26.015625 7.0625 26.015625 9.300781 C 26.015625 10.242188 25.863281 18.640625 20.734375 22.945312 C 15.273438 27.527344 13.71875 28.726562 10.726562 28.726562 C 7.234375 28.726562 1.03125 28.800781 1.03125 28.800781 L -0.00390625 28.816406 L -0.00390625 53.226562 L 11.421875 53.226562 C 12.164062 53.226562 14.386719 54.21875 16.355469 55.09375 C 19.597656 56.535156 23.273438 58.175781 25.746094 58.175781 L 42.246094 58.167969 C 44.933594 58.167969 47.117188 56.054688 47.117188 53.460938 C 47.117188 52.402344 46.738281 51.4375 46.128906 50.648438 C 48.097656 50.085938 49.550781 48.289062 49.550781 46.140625 C 49.550781 45.0625 49.171875 44.078125 48.558594 43.285156 C 50.496094 42.664062 51.914062 40.871094 51.914062 38.730469 C 51.914062 37.652344 51.546875 36.667969 50.945312 35.867188 C 53.007812 35.351562 54.546875 33.496094 54.546875 31.277344 Z M 49.800781 33.925781 L 46.15625 33.925781 L 46.15625 36.023438 L 47.113281 36.023438 C 48.605469 36.023438 49.816406 37.234375 49.816406 38.726562 C 49.816406 40.21875 48.601562 41.433594 47.113281 41.433594 L 44.058594 41.433594 L 44.058594 43.53125 L 44.847656 43.53125 C 46.285156 43.53125 47.457031 44.703125 47.457031 46.140625 C 47.457031 47.582031 46.285156 48.753906 44.847656 48.753906 L 41.960938 48.753906 L 41.960938 50.851562 L 42.246094 50.851562 C 43.777344 50.851562 45.023438 52.023438 45.023438 53.460938 C 45.023438 54.898438 43.777344 56.070312 42.246094 56.070312 L 39.566406 56.070312 L 39.566406 56.074219 L 25.746094 56.074219 C 23.71875 56.074219 20.109375 54.46875 17.207031 53.175781 C 14.359375 51.90625 12.554688 51.128906 11.425781 51.128906 L 2.097656 51.128906 L 2.097656 30.886719 C 4.007812 30.867188 8.125 30.824219 10.726562 30.824219 C 14.609375 30.824219 16.644531 29.117188 22.085938 24.550781 C 27.820312 19.738281 28.113281 11.003906 28.113281 9.300781 C 28.113281 8.445312 29.429688 7.925781 30.007812 7.925781 C 31.105469 7.925781 33.683594 7.925781 33.683594 13.394531 C 33.683594 20.304688 30.191406 27.214844 30.15625 27.285156 L 29.378906 28.808594 L 42.230469 28.808594 C 42.265625 28.835938 42.289062 28.808594 42.289062 28.808594 L 49.804688 28.808594 C 51.339844 28.808594 52.453125 29.875 52.453125 31.277344 C 52.453125 32.734375 51.265625 33.925781 49.804688 33.925781 Z M 49.800781 33.925781 "/>
</g>
</svg>
