<?xml version="1.0" encoding="UTF-8"?>
<svg xmlns="http://www.w3.org/2000/svg" xmlns:xlink="http://www.w3.org/1999/xlink" width="62pt" height="62pt" viewBox="0 0 62 62" version="1.1">
<g id="surface1">
<path style=" stroke:none;fill-rule:nonzero;fill:#5474fd;fill-opacity:1;" d="M 55.394531 52.839844 L 41.324219 38.765625 C 44.152344 35.363281 45.855469 31 45.855469 26.230469 C 45.855469 15.390625 37.066406 6.605469 26.230469 6.605469 C 15.390625 6.605469 6.605469 15.390625 6.605469 26.230469 C 6.605469 37.066406 15.394531 45.855469 26.230469 45.855469 C 31 45.855469 35.367188 44.152344 38.765625 41.324219 L 52.839844 55.398438 Z M 8.671875 26.230469 C 8.671875 16.546875 16.546875 8.671875 26.230469 8.671875 C 35.910156 8.671875 43.789062 16.546875 43.789062 26.230469 C 43.789062 35.910156 35.910156 43.789062 26.230469 43.789062 C 16.546875 43.789062 8.671875 35.910156 8.671875 26.230469 Z M 8.671875 26.230469 "/>
</g>
</svg>
